<svg width="24" height="24" viewBox="0 0 24 24" fill="none" xmlns="http://www.w3.org/2000/svg">
<path fill-rule="evenodd" clip-rule="evenodd" d="M5.34051 5.36978C5.55882 5.15221 5.85476 5.03 6.16331 5.03C6.47185 5.03 6.76778 5.15221 6.9861 5.36978L11.985 10.3579L16.9838 5.36978C17.0905 5.25563 17.219 5.16408 17.3618 5.10058C17.5047 5.03708 17.6588 5.00294 17.8151 5.00018C17.9715 4.99742 18.1267 5.02613 18.2717 5.08456C18.4167 5.14299 18.5484 5.22996 18.6589 5.34029C18.7696 5.45062 18.8567 5.58204 18.9152 5.7267C18.9737 5.87137 19.0026 6.02633 18.9998 6.18233C18.997 6.33834 18.9629 6.49218 18.8992 6.6347C18.8356 6.77722 18.7438 6.90548 18.6294 7.01184L13.6305 12L18.6294 16.9881C18.7438 17.0946 18.8356 17.2228 18.8992 17.3653C18.9629 17.5079 18.997 17.6617 18.9998 17.8177C19.0026 17.9737 18.9737 18.1286 18.9152 18.2733C18.8567 18.418 18.7696 18.5493 18.6589 18.6596C18.5484 18.7701 18.4167 18.857 18.2717 18.9154C18.1267 18.9738 17.9715 19.0026 17.8151 18.9998C17.6588 18.997 17.5047 18.9629 17.3618 18.8994C17.219 18.8359 17.0905 18.7444 16.9838 18.6302L11.985 13.6421L6.9861 18.6302C6.76537 18.8355 6.47344 18.9471 6.1718 18.9419C5.87016 18.9365 5.58237 18.8145 5.36903 18.6017C5.15571 18.3888 5.03352 18.1016 5.02819 17.8006C5.02287 17.4997 5.13485 17.2084 5.34051 16.9881L10.3394 12L5.34051 7.01184C5.12247 6.79401 5 6.4987 5 6.19081C5 5.88293 5.12247 5.58764 5.34051 5.36978Z" fill="white"/>
</svg>
