<svg width="1481" height="1436" viewBox="0 0 1481 1436" fill="none" xmlns="http://www.w3.org/2000/svg">
<g filter="url(#filter0_f_103_1573)">
<path d="M1131 705C1131 774.238 1111.66 842.167 1075.06 901.488C1038.47 960.808 985.994 1009.28 923.283 1041.69C860.573 1074.09 789.996 1089.22 719.138 1085.43C648.28 1081.64 579.819 1059.09 521.113 1020.19C462.406 981.29 415.674 927.518 385.937 864.652C356.201 801.786 344.585 732.202 352.337 663.378C360.089 594.555 386.917 529.093 429.938 474.029C472.958 418.964 530.544 376.378 596.508 350.848L680.507 557.446C653.024 568.083 629.031 585.826 611.107 608.768C593.183 631.71 582.006 658.984 578.776 687.659C575.546 716.333 580.386 745.325 592.775 771.517C605.164 797.71 624.635 820.113 649.095 836.32C673.554 852.527 702.078 861.924 731.6 863.502C761.122 865.08 790.527 858.779 816.655 845.277C842.783 831.774 864.645 811.58 879.893 786.865C895.141 762.149 903.198 733.847 903.198 705H1131Z" fill="#FFE5CF"/>
</g>
<defs>
<filter id="filter0_f_103_1573" x="-0.000244141" y="0.847656" width="1481" height="1435.15" filterUnits="userSpaceOnUse" color-interpolation-filters="sRGB">
<feFlood flood-opacity="0" result="BackgroundImageFix"/>
<feBlend mode="normal" in="SourceGraphic" in2="BackgroundImageFix" result="shape"/>
<feGaussianBlur stdDeviation="175" result="effect1_foregroundBlur_103_1573"/>
</filter>
</defs>
</svg>
