<svg width="1248" height="1227" viewBox="0 0 1248 1227" fill="none" xmlns="http://www.w3.org/2000/svg">
<g clip-path="url(#clip0_117_1004)" filter="url(#filter0_dddddd_117_1004)">
<path d="M568.772 573.362C564.475 579.985 561.246 587.236 559.203 594.851C564.006 591.602 569.211 590.425 574.862 589.575C573.269 593.059 571.856 596.621 570.627 600.247C565.714 601.281 560.27 602.286 556.283 605.632C555.553 596.196 557.501 588.29 562.399 580.183C564.183 577.617 566.33 575.32 568.772 573.362V573.362Z" fill="white"/>
<path d="M604.114 605.757C597.72 603.576 590.211 602.161 584.467 599.097C581.934 597.745 578.79 595.877 578.383 592.489C577.967 588.996 579.341 585.372 581.008 582.367C583.052 578.704 585.816 575.338 589.255 572.839C592.395 570.498 596.175 569.159 600.093 569C604.744 568.878 608.779 570.824 611.929 573.506C615.216 576.312 617.774 580.291 619.823 584.522C621.423 587.828 622.953 591.206 624.779 594.414C626.335 597.138 628.183 599.731 629.83 602.37C631.477 605.008 632.24 607.052 631.628 608.692C631.017 610.332 628.804 611.579 624.752 611.596C617.615 611.604 610.68 607.998 604.114 605.757ZM605.479 596.022C608.792 597.351 612.132 598.851 615.464 600.012C617.68 600.783 619.32 600.808 620.301 600.33C621.282 599.851 621.523 598.683 621.229 596.85C620.92 595.023 620.271 593.27 619.315 591.682C618.265 589.876 616.998 588.205 615.541 586.705C613.578 584.723 611.361 583.008 608.948 581.601C606.702 580.228 604.237 579.246 601.658 578.695C599.665 578.26 597.586 578.434 595.692 579.194C593.937 579.921 592.481 581.32 591.445 583.341C590.409 585.363 590.277 587.056 591.113 588.435C591.95 589.813 593.553 590.983 596.005 592.112C599.108 593.559 602.331 594.767 605.479 596.022Z" fill="white"/>
<path d="M653.778 611.771C647.543 607.763 641.288 603.748 634.752 600.225C630.518 597.941 626.095 596.898 623.424 592.907C623.687 590.462 623.445 588.067 623.841 585.597C636.923 590.643 648.942 598.98 660.413 606.834C659.081 607.579 658.396 607.937 656.997 608.608C649.927 594.285 641.497 580.668 631.822 567.945C633.905 565.429 636.346 563.228 639.067 561.413C649.144 575.515 658.031 590.422 665.638 605.984C661.875 608.386 657.933 610.168 653.778 611.771Z" fill="white"/>
<path d="M670.25 575.086C671.869 576.848 672.667 577.744 674.23 579.561C677.936 577.168 683.212 572.932 687.975 574.773C689.036 577.035 689.79 579.428 690.218 581.888C686.055 586.401 682.422 591.409 678.179 595.909C667.215 582.639 655.244 570.544 641.793 559.759C653.953 553.872 665.971 554.311 677.408 561.498C679.352 562.905 681.11 564.551 682.639 566.397C675.864 561.934 668.043 563.208 660.796 565.559C662.533 567.18 663.389 568.009 665.077 569.696C670.246 567.631 676.128 565.551 681.717 567.455C682.669 568.638 683.557 569.872 684.377 571.149C679.458 570.087 674.394 572.899 670.25 575.086Z" fill="white"/>
<path d="M558.931 613.172C563.282 627.544 572.272 637.862 584.121 646.828C586.663 644.785 589.374 643.262 592.235 641.692C595.945 644.965 599.843 648.021 603.908 650.844C599.927 654.617 598.884 656.714 598.808 656.729C580.214 647.476 563.114 634.945 557.648 614.022C557.692 614.015 557.938 613.782 558.931 613.172Z" fill="white"/>
<path d="M615.468 644.099C612.636 645.437 610.363 646.444 607.68 646.445C604.253 646.448 601.089 644.949 598.236 643.427C593.818 641.076 589.809 637.217 586.641 633.25C583.57 629.407 580.735 624.44 580.316 619.433C579.995 615.601 581.74 611.649 585.332 610.042C591.495 607.293 599.059 609.382 604.988 611.378C612.019 613.742 619.103 617.525 625.777 621.212C628.814 622.889 632.222 624.944 634.002 627.972C634.62 629.023 634.978 630.205 635.045 631.422C635.112 632.638 634.887 633.854 634.388 634.967C633.42 637.253 631.784 638.586 629.857 639.455C627.929 640.323 625.621 640.714 623.229 641.297C620.552 641.964 617.952 642.903 615.468 644.099V644.099ZM611.72 638.322C614.105 638.267 616.372 638.355 617.999 638.175C619.626 637.995 620.929 637.643 621.927 637.08C622.434 636.814 622.861 636.417 623.162 635.931C623.464 635.445 623.63 634.888 623.642 634.317C623.752 632.96 623.286 631.701 622.109 630.593C620.932 629.485 619.129 628.454 616.776 627.39C613.502 625.894 610.091 624.711 606.59 623.859C603.709 623.183 600.48 622.627 597.351 623.012C595.045 623.3 593.676 624.267 593.176 625.709C592.676 627.15 593.256 629.232 594.827 631.637C596.398 634.041 598.18 635.658 599.953 636.649C601.632 637.577 603.495 638.13 605.413 638.269C607.312 638.415 609.337 638.366 611.72 638.322Z" fill="white"/>
<path d="M638.182 642.349C644.752 637.49 640.935 628.048 639.1 621.904C643.147 621.951 647.187 621.529 651.137 620.644C651.999 630.069 650.65 636.19 643.633 642.786C642.821 642.627 642.409 642.55 641.575 642.4C655.308 637.617 664.793 624.732 670.494 612.088C673.076 610.348 675.525 608.42 677.821 606.32C672.188 622.251 661.114 637.393 644.89 643.946C642.308 643.251 640.96 642.912 638.182 642.349Z" fill="white"/>
<path d="M672.709 629.484C671.074 631.804 670.202 632.929 668.396 635.101C671.815 633.997 675.299 632.979 678.243 630.833C674.439 635.761 670.344 640.461 665.982 644.909C662.223 648.05 657.445 646.875 653.111 646.083C666.633 635.076 676.452 621.701 679.862 604.421C684.107 600 688.01 595.267 691.537 590.26C691.991 596.325 691.441 602.423 689.909 608.314C686.665 610.558 683.653 613.187 680.508 615.562C679.612 617.752 678.58 619.884 677.418 621.946C680.367 620.133 683.266 618.299 686.108 616.325C684.751 619.349 683.186 622.275 681.424 625.085C678.648 626.818 675.693 628.141 672.709 629.484Z" fill="white"/>
<path d="M607.753 661.114C610.468 662.469 611.821 663.126 614.496 664.388C617.196 665.008 618.613 665.046 621.299 664.986C622.978 666.302 623.813 666.953 625.482 668.252C621.373 667.136 617.386 665.735 613.41 664.226C611.021 663.268 609.783 662.743 607.299 661.596C607.348 661.614 607.44 661.5 607.753 661.114Z" fill="white"/>
<path d="M632.799 670.471C631.727 670.21 630.309 669.555 628.803 668.771C627.296 667.987 625.686 667.077 624.088 666.065C622.378 664.995 620.743 663.812 619.192 662.524C617.519 661.12 616.325 659.859 615.612 658.562C615.252 657.959 615.03 657.284 614.963 656.585C614.896 655.887 614.984 655.182 615.222 654.521C615.726 653.121 617.002 651.631 619.313 650.537C621.398 649.503 623.79 649.264 626.036 649.867C627.991 650.454 629.667 651.72 630.761 653.435C631.876 655.138 632.542 657.268 633.064 659.764C633.586 662.26 633.819 664.327 634.011 665.988C634.202 667.65 634.335 668.898 634.269 669.675C634.204 670.452 633.874 670.734 632.799 670.471ZM629.058 664.964C629.589 664.962 630.103 664.777 630.514 664.442C630.831 664.146 630.943 663.64 630.883 662.915C630.739 661.857 630.436 660.828 629.983 659.861C629.425 658.551 628.824 657.553 628.132 656.918C627.5 656.301 626.68 655.91 625.8 655.806C624.886 655.728 623.965 655.857 623.108 656.184C622.317 656.445 621.601 656.892 621.019 657.485C620.795 657.721 620.633 658.009 620.549 658.322C620.466 658.635 620.462 658.964 620.538 659.279C620.682 659.959 621.213 660.748 622.112 661.699C622.866 662.517 623.728 663.228 624.675 663.814C625.385 664.254 626.159 664.584 626.969 664.793C627.652 664.957 628.357 665.015 629.058 664.964Z" fill="white"/>
<path d="M636.05 670.098C635.683 662.562 634.085 655.969 631.177 649.02C632.673 649.11 634.159 649.313 635.624 649.626C636.992 655.984 637.788 662.281 637.249 668.798L636.678 669.07C638.254 662.928 640.444 657.207 643.931 651.853C645.491 652.338 646.248 652.58 647.69 652.999C643.365 657.787 640.335 663.172 637.859 669.077C636.931 669.625 636.554 669.831 636.05 670.098Z" fill="white"/>
<path d="M647.542 660.318L646.603 661.661C649.898 660.269 652.584 658.235 655.378 656.065C654.732 656.643 654.406 656.928 653.765 657.482C649.937 660.736 645.936 663.785 641.781 666.615C644.17 662.205 646.524 657.777 648.845 653.33C652.219 653.983 656.262 655.132 659.225 652.489C658.571 653.123 658.243 653.434 657.588 654.042C654.789 656.534 653.124 656.962 649.645 657.274C649.27 657.822 649.082 658.094 648.706 658.636C651.523 658.086 652.928 657.615 655.492 655.795L654.519 656.693C651.785 658.734 650.336 659.397 647.542 660.318Z" fill="white"/>
</g>
<defs>
<filter id="filter0_dddddd_117_1004" x="-4.65997" y="-4.65991" width="1262.85" height="1241.24" filterUnits="userSpaceOnUse" color-interpolation-filters="sRGB">
<feFlood flood-opacity="0" result="BackgroundImageFix"/>
<feColorMatrix in="SourceAlpha" type="matrix" values="0 0 0 0 0 0 0 0 0 0 0 0 0 0 0 0 0 0 127 0" result="hardAlpha"/>
<feOffset/>
<feGaussianBlur stdDeviation="6.615"/>
<feColorMatrix type="matrix" values="0 0 0 0 0.933333 0 0 0 0 0.898039 0 0 0 0 1 0 0 0 1 0"/>
<feBlend mode="normal" in2="BackgroundImageFix" result="effect1_dropShadow_117_1004"/>
<feColorMatrix in="SourceAlpha" type="matrix" values="0 0 0 0 0 0 0 0 0 0 0 0 0 0 0 0 0 0 127 0" result="hardAlpha"/>
<feOffset/>
<feGaussianBlur stdDeviation="13.23"/>
<feColorMatrix type="matrix" values="0 0 0 0 0.933333 0 0 0 0 0.898039 0 0 0 0 1 0 0 0 1 0"/>
<feBlend mode="normal" in2="effect1_dropShadow_117_1004" result="effect2_dropShadow_117_1004"/>
<feColorMatrix in="SourceAlpha" type="matrix" values="0 0 0 0 0 0 0 0 0 0 0 0 0 0 0 0 0 0 127 0" result="hardAlpha"/>
<feOffset/>
<feGaussianBlur stdDeviation="46.305"/>
<feColorMatrix type="matrix" values="0 0 0 0 0.933333 0 0 0 0 0.898039 0 0 0 0 1 0 0 0 1 0"/>
<feBlend mode="normal" in2="effect2_dropShadow_117_1004" result="effect3_dropShadow_117_1004"/>
<feColorMatrix in="SourceAlpha" type="matrix" values="0 0 0 0 0 0 0 0 0 0 0 0 0 0 0 0 0 0 127 0" result="hardAlpha"/>
<feOffset/>
<feGaussianBlur stdDeviation="92.61"/>
<feColorMatrix type="matrix" values="0 0 0 0 0.933333 0 0 0 0 0.898039 0 0 0 0 1 0 0 0 1 0"/>
<feBlend mode="normal" in2="effect3_dropShadow_117_1004" result="effect4_dropShadow_117_1004"/>
<feColorMatrix in="SourceAlpha" type="matrix" values="0 0 0 0 0 0 0 0 0 0 0 0 0 0 0 0 0 0 127 0" result="hardAlpha"/>
<feOffset/>
<feGaussianBlur stdDeviation="158.76"/>
<feColorMatrix type="matrix" values="0 0 0 0 0.933333 0 0 0 0 0.898039 0 0 0 0 1 0 0 0 1 0"/>
<feBlend mode="normal" in2="effect4_dropShadow_117_1004" result="effect5_dropShadow_117_1004"/>
<feColorMatrix in="SourceAlpha" type="matrix" values="0 0 0 0 0 0 0 0 0 0 0 0 0 0 0 0 0 0 127 0" result="hardAlpha"/>
<feOffset/>
<feGaussianBlur stdDeviation="277.83"/>
<feColorMatrix type="matrix" values="0 0 0 0 0.933333 0 0 0 0 0.898039 0 0 0 0 1 0 0 0 1 0"/>
<feBlend mode="normal" in2="effect5_dropShadow_117_1004" result="effect6_dropShadow_117_1004"/>
<feBlend mode="normal" in="SourceGraphic" in2="effect6_dropShadow_117_1004" result="shape"/>
</filter>
<clipPath id="clip0_117_1004">
<rect width="136" height="110" fill="white" transform="translate(551 572.275) rotate(-9)"/>
</clipPath>
</defs>
</svg>
